<svg xmlns="http://www.w3.org/2000/svg" xmlns:xlink="http://www.w3.org/1999/xlink" id="Layer_1" width="48" height="48" x="0" y="0" fill="#000" enable-background="new 0 0 16 16" version="1.1" viewBox="0 0 48 48" xml:space="preserve"><path d="M 39.00,48.00L9.00,48.00 c-4.971,0.00-9.00-4.029-9.00-9.00L0.00,9.00 c0.00-4.971, 4.029-9.00, 9.00-9.00l30.00,0.00 c 4.968,0.00, 9.00,4.029, 9.00,9.00l0.00,30.00 C 48.00,43.971, 43.968,48.00, 39.00,48.00z M 9.00,3.00C 7.344,3.00, 6.00,4.344, 6.00,6.00s 1.344,3.00, 3.00,3.00s 3.00-1.344, 3.00-3.00S 10.656,3.00, 9.00,3.00z M 42.00,12.00L6.00,12.00 l0.00,27.00 c0.00,1.659, 1.344,3.00, 3.00,3.00l30.00,0.00 c 1.659,0.00, 3.00-1.341, 3.00-3.00L42.00,12.00 z" style="fill:#5a5a5a"/></svg>